<svg width="10" height="11" viewBox="0 0 10 11" fill="none" xmlns="http://www.w3.org/2000/svg">
<path fill-rule="evenodd" clip-rule="evenodd" d="M6.71756 2.51319C6.71759 2.51318 6.71761 2.51317 6.71764 2.51316C6.18818 2.08934 5.61121 1.72879 4.99843 1.43882C3.31068 0.650832 1.66613 0.641699 0.732954 1.57667C0.244015 2.06655 0.0137615 2.75147 0.0185359 3.53576C0.0675817 3.16177 0.208209 2.84302 0.446927 2.60384C0.677834 2.37248 0.981871 2.23354 1.33843 2.18005C1.8864 2.09786 2.55829 2.21724 3.27922 2.51316C3.8341 2.74106 4.41823 3.07338 4.99698 3.49882M6.71756 2.51319C6.96304 2.70815 7.20412 2.91935 7.44081 3.14679L7.51394 3.21768L7.57905 3.28291L7.64415 3.34814C7.66301 3.36703 7.68465 3.38953 7.70537 3.41108C7.7085 3.41433 7.71161 3.41757 7.71468 3.42076C8.05654 3.77557 8.3711 4.15579 8.65567 4.55817C8.94262 4.96216 9.19373 5.39055 9.40611 5.83843L9.40623 5.83867C9.4153 5.85816 9.42438 5.87764 9.43324 5.89713C10.2067 7.57856 10.211 9.21281 9.28242 10.1432C8.65133 10.7755 7.69559 10.976 6.62114 10.7955C7.27436 10.8664 7.8258 10.7322 8.19277 10.3646C8.40133 10.1556 8.53479 9.8862 8.59772 9.57353C8.70819 9.02559 8.60446 8.34154 8.31365 7.60291L8.3104 7.59444C8.1444 7.18192 7.94229 6.78492 7.70644 6.40811C7.32189 5.78733 6.82643 5.15916 6.23398 4.56556C5.84967 4.17948 5.43663 3.82323 4.99843 3.49989" fill="url(#paint0_linear_35501_3)"/>
<g filter="url(#filter0_i_35501_3)">
<path fill-rule="evenodd" clip-rule="evenodd" d="M3.74247 9.5245C4.18772 9.3734 4.61563 9.17522 5.01897 8.93329L5.00855 8.92611C4.3868 8.55267 3.81395 8.10303 3.30323 7.58758C2.93892 7.22367 2.60646 6.8291 2.30951 6.40821C2.30885 6.40727 2.30819 6.40632 2.30753 6.40536C2.30466 6.40125 2.30173 6.39705 2.29909 6.39299C1.87157 5.782 1.55603 5.15622 1.36071 4.55784C1.35854 4.55131 1.35659 4.54501 1.35463 4.53848C1.06665 3.64069 1.05472 2.80618 1.35854 2.17909L1.33684 2.18257C1.33726 2.18137 1.33776 2.18021 1.33836 2.17909C0.981798 2.23323 0.677761 2.37152 0.446855 2.60287C0.207702 2.84249 0.067509 3.16082 0.0184631 3.5348C0.0187525 3.58945 0.0201982 3.64461 0.0228024 3.70027C-0.0132224 4.32301 0.180142 5.07968 0.572726 5.87593C0.575981 5.88376 0.579453 5.89071 0.582925 5.89767C0.81234 6.35352 1.08101 6.78845 1.38589 7.1975C1.48109 7.33115 1.58098 7.46379 1.68559 7.59541C1.83113 7.77878 1.9855 7.95918 2.1487 8.1366L2.15282 8.14117C2.24469 8.2409 2.33924 8.33947 2.43647 8.43688C2.74843 8.75004 3.08092 9.04198 3.43171 9.31076L3.43627 9.31424C3.53117 9.38672 3.62659 9.4568 3.72251 9.5245L3.73228 9.52124L3.73879 9.5258L3.74247 9.5245ZM8.19212 10.3653C8.40068 10.1563 8.53414 9.88759 8.59708 9.57427C7.96903 9.8441 7.15218 9.81562 6.27695 9.52513L6.27326 9.52382C5.87022 9.8099 5.44311 10.0603 4.99676 10.2722L4.97354 10.2829L4.99676 10.2942C5.57229 10.5712 6.12569 10.7425 6.62049 10.7963C7.27371 10.8671 7.82515 10.733 8.19212 10.3653Z" fill="#BEFF97"/>
</g>
<path d="M9.97795 3.53595C9.92891 3.162 9.78873 2.84371 9.54961 2.60413C9.31873 2.3728 9.01472 2.23453 8.6582 2.18039C8.11029 2.09821 7.43848 2.21757 6.71763 2.51347C6.16235 2.74153 5.57777 3.07417 4.99862 3.50008C4.55992 3.82367 4.14644 4.18024 3.76176 4.5667C3.17414 5.15544 2.682 5.77811 2.29901 6.39295L2.28946 6.40817C2.05364 6.78494 1.85155 7.18189 1.68557 7.59436L1.68232 7.60284C1.39155 8.34204 1.28783 9.02536 1.39828 9.57324C1.4612 9.88653 1.59465 10.1552 1.80318 10.3642C2.17012 10.7318 2.72149 10.866 3.37464 10.7951C2.30031 10.9749 1.34468 10.7744 0.713664 10.1429C-0.214848 9.21255 -0.210512 7.5774 0.563284 5.89747C0.566539 5.89051 0.569581 5.88355 0.573053 5.87573C0.578694 5.86312 0.584549 5.85051 0.590408 5.8379C0.802772 5.39007 1.05385 4.96173 1.34077 4.55778L1.35466 4.53843C1.6355 4.14322 1.94535 3.76955 2.28165 3.42051C2.30509 3.39616 2.3286 3.37195 2.35218 3.34789C2.37388 3.32615 2.39557 3.30441 2.41727 3.28267L2.48237 3.21744L2.55484 3.14678C2.79079 2.91937 3.0323 2.70783 3.27939 2.51216C3.80878 2.08838 4.38568 1.72787 4.9984 1.43793C6.68595 0.650036 8.32989 0.640469 9.26339 1.57577C9.7525 2.06603 9.98272 2.75175 9.97795 3.53595Z" fill="url(#paint1_linear_35501_3)"/>
<mask id="mask0_35501_3" style="mask-type:alpha" maskUnits="userSpaceOnUse" x="0" y="0" width="10" height="11">
<path fill-rule="evenodd" clip-rule="evenodd" d="M6.71952 2.51271C6.71954 2.5127 6.71956 2.51269 6.71959 2.51268C6.19013 2.08885 5.61317 1.7283 5.00038 1.43833C3.31264 0.650344 1.66808 0.641211 0.734908 1.57618C0.245968 2.06607 0.0157146 2.75099 0.020489 3.53528C0.0695348 3.16129 0.210162 2.84253 0.448881 2.60335C0.679787 2.372 0.983824 2.23306 1.34038 2.17957C1.88835 2.09738 2.56024 2.21675 3.28117 2.51268C3.83606 2.74058 4.42019 3.07289 4.99893 3.49833M6.71952 2.51271C6.96499 2.70766 7.20607 2.91886 7.44276 3.1463L7.5159 3.21719L7.581 3.28242L7.64611 3.34765C7.66496 3.36654 7.6866 3.38904 7.70732 3.41059C7.71045 3.41385 7.71356 3.41708 7.71664 3.42027C8.05849 3.77508 8.37305 4.1553 8.65763 4.55768C8.94458 4.96168 9.19568 5.39007 9.40807 5.83794L9.40818 5.83818C9.41726 5.85767 9.42633 5.87715 9.43519 5.89664C10.2086 7.57807 10.213 9.21232 9.28437 10.1427C8.65328 10.775 7.69754 10.9755 6.62309 10.795C7.27631 10.8659 7.82775 10.7318 8.19473 10.3641C8.40328 10.1551 8.53674 9.88572 8.59968 9.57304C8.71014 9.02511 8.60641 8.34105 8.31561 7.60242L8.31235 7.59395C8.14635 7.18143 7.94425 6.78444 7.70839 6.40762C7.32384 5.78684 6.82839 5.15867 6.23593 4.56507C5.85162 4.17899 5.43859 3.82274 5.00038 3.4994" fill="url(#paint2_linear_35501_3)"/>
</mask>
<g mask="url(#mask0_35501_3)">
<g filter="url(#filter1_d_35501_3)">
<path d="M9.9799 3.53546C9.93086 3.16151 9.79069 2.84323 9.55156 2.60364C9.32068 2.37231 9.01667 2.23404 8.66015 2.1799C8.11225 2.09772 7.44044 2.21708 6.71959 2.51298C6.1643 2.74104 5.57973 3.07368 5.00057 3.49959C4.56188 3.82318 4.1484 4.17975 3.76371 4.56621C3.1761 5.15496 2.68395 5.77762 2.30096 6.39246L2.29142 6.40768C2.05559 6.78445 1.85351 7.1814 1.68753 7.59387L1.68427 7.60235C1.3935 8.34155 1.28978 9.02487 1.40023 9.57275C1.46316 9.88604 1.59661 10.1548 1.80514 10.3637C2.17207 10.7313 2.72345 10.8655 3.3766 10.7946C2.30227 10.9744 1.34663 10.7739 0.715617 10.1424C-0.212895 9.21206 -0.208559 7.57691 0.565237 5.89698C0.568492 5.89002 0.571534 5.88307 0.575006 5.87524C0.580648 5.86263 0.586502 5.85002 0.592361 5.83741C0.804725 5.38959 1.05581 4.96125 1.34272 4.55729L1.35661 4.53794C1.63745 4.14273 1.94731 3.76906 2.28361 3.42002C2.30704 3.39567 2.33055 3.37146 2.35413 3.3474C2.37583 3.32566 2.39753 3.30392 2.41923 3.28218L2.48432 3.21695L2.5568 3.1463C2.79274 2.91888 3.03426 2.70734 3.28134 2.51167C3.81074 2.08789 4.38764 1.72738 5.00035 1.43745C6.68791 0.649548 8.33185 0.639981 9.26535 1.57528C9.75445 2.06554 9.98468 2.75126 9.9799 3.53546Z" fill="url(#paint3_linear_35501_3)"/>
</g>
</g>
<g filter="url(#filter2_i_35501_3)">
<path fill-rule="evenodd" clip-rule="evenodd" d="M9.40953 5.83956C9.41864 5.85913 9.42776 5.8787 9.43666 5.89827C9.87178 5.02331 10.0673 4.19336 9.98115 3.53627C9.93211 3.16228 9.79148 2.84352 9.55276 2.60434C9.32186 2.37299 9.01781 2.23405 8.66126 2.18056C8.96703 2.81221 8.95293 3.65412 8.65909 4.5593C8.94604 4.9633 9.19714 5.39169 9.40953 5.83956ZM7.85103 8.1367C8.01524 7.96101 8.1707 7.78344 8.3174 7.60398L8.31458 7.59638C8.14858 7.18386 7.94647 6.78687 7.71062 6.41005C7.41367 6.83094 7.08121 7.22551 6.7169 7.58942C6.20618 8.10487 5.63333 8.55451 5.01158 8.92795L5.00159 8.93382C4.60116 9.17366 4.17656 9.37044 3.73486 9.5209L3.7251 9.52416L3.72141 9.52546C2.84618 9.81596 2.02846 9.84444 1.40128 9.5746C1.46421 9.88728 1.59768 10.1567 1.80623 10.3656C2.17321 10.7333 2.72465 10.8675 3.37787 10.7966C3.8731 10.7429 4.42606 10.5715 5.00159 10.2945L5.02481 10.2832C5.46463 10.0671 5.88516 9.81355 6.28178 9.52546C6.37582 9.4569 6.46986 9.38638 6.5639 9.3139L6.56846 9.31042C6.91908 9.04177 7.25142 8.74998 7.56326 8.43698C7.66049 8.33943 7.75503 8.24085 7.8469 8.14127L7.85103 8.1367Z" fill="#BEFF97"/>
</g>
<defs>
<filter id="filter0_i_35501_3" x="0.0184631" y="2.17909" width="8.57861" height="9.33104" filterUnits="userSpaceOnUse" color-interpolation-filters="sRGB">
<feFlood flood-opacity="0" result="BackgroundImageFix"/>
<feBlend mode="normal" in="SourceGraphic" in2="BackgroundImageFix" result="shape"/>
<feColorMatrix in="SourceAlpha" type="matrix" values="0 0 0 0 0 0 0 0 0 0 0 0 0 0 0 0 0 0 127 0" result="hardAlpha"/>
<feOffset dy="0.695653"/>
<feGaussianBlur stdDeviation="1.73913"/>
<feComposite in2="hardAlpha" operator="arithmetic" k2="-1" k3="1"/>
<feColorMatrix type="matrix" values="0 0 0 0 0 0 0 0 0 0 0 0 0 0 0 0 0 0 0.15 0"/>
<feBlend mode="normal" in2="shape" result="effect1_innerShadow_35501_3"/>
</filter>
<filter id="filter1_d_35501_3" x="-3.47738" y="-3.66248" width="20.4139" height="20.4332" filterUnits="userSpaceOnUse" color-interpolation-filters="sRGB">
<feFlood flood-opacity="0" result="BackgroundImageFix"/>
<feColorMatrix in="SourceAlpha" type="matrix" values="0 0 0 0 0 0 0 0 0 0 0 0 0 0 0 0 0 0 127 0" result="hardAlpha"/>
<feOffset dx="1.73913" dy="0.695653"/>
<feGaussianBlur stdDeviation="2.6087"/>
<feComposite in2="hardAlpha" operator="out"/>
<feColorMatrix type="matrix" values="0 0 0 0 0.0784314 0 0 0 0 0.564706 0 0 0 0 0.027451 0 0 0 1 0"/>
<feBlend mode="normal" in2="BackgroundImageFix" result="effect1_dropShadow_35501_3"/>
<feBlend mode="normal" in="SourceGraphic" in2="effect1_dropShadow_35501_3" result="shape"/>
</filter>
<filter id="filter2_i_35501_3" x="1.40128" y="2.18056" width="8.5998" height="9.32992" filterUnits="userSpaceOnUse" color-interpolation-filters="sRGB">
<feFlood flood-opacity="0" result="BackgroundImageFix"/>
<feBlend mode="normal" in="SourceGraphic" in2="BackgroundImageFix" result="shape"/>
<feColorMatrix in="SourceAlpha" type="matrix" values="0 0 0 0 0 0 0 0 0 0 0 0 0 0 0 0 0 0 127 0" result="hardAlpha"/>
<feOffset dy="0.695653"/>
<feGaussianBlur stdDeviation="1.73913"/>
<feComposite in2="hardAlpha" operator="arithmetic" k2="-1" k3="1"/>
<feColorMatrix type="matrix" values="0 0 0 0 0 0 0 0 0 0 0 0 0 0 0 0 0 0 0.15 0"/>
<feBlend mode="normal" in2="shape" result="effect1_innerShadow_35501_3"/>
</filter>
<linearGradient id="paint0_linear_35501_3" x1="0.0184623" y1="10.859" x2="-5.49799" y2="-5.60491" gradientUnits="userSpaceOnUse">
<stop stop-color="#0B8A00"/>
<stop offset="0.640625" stop-color="#BEFF97"/>
</linearGradient>
<linearGradient id="paint1_linear_35501_3" x1="-0.00106892" y1="10.8582" x2="-5.51759" y2="-5.60604" gradientUnits="userSpaceOnUse">
<stop stop-color="#0B8A00"/>
<stop offset="0.640625" stop-color="#BEFF97"/>
</linearGradient>
<linearGradient id="paint2_linear_35501_3" x1="0.0204155" y1="10.8585" x2="-5.49604" y2="-5.6054" gradientUnits="userSpaceOnUse">
<stop stop-color="#0B8A00"/>
<stop offset="0.640625" stop-color="#BEFF97"/>
</linearGradient>
<linearGradient id="paint3_linear_35501_3" x1="0.000884206" y1="10.8577" x2="-5.51564" y2="-5.60653" gradientUnits="userSpaceOnUse">
<stop stop-color="#0B8A00"/>
<stop offset="0.640625" stop-color="#BEFF97"/>
</linearGradient>
</defs>
</svg>
